<svg width="16" height="16" viewBox="0 0 16 16" fill="none" xmlns="http://www.w3.org/2000/svg">
<path d="M2.79938 6.42431C2.88188 6.45458 2.96969 6.46764 3.0574 6.46267C3.14511 6.45771 3.23089 6.43483 3.30947 6.39545C3.38805 6.35606 3.45777 6.301 3.51436 6.23363C3.57095 6.16626 3.61321 6.08802 3.63856 6.00369C3.97654 4.96269 4.71101 4.09764 5.6821 3.59682C6.6504 3.11905 7.76831 3.04621 8.79015 3.3943C9.54273 3.67486 10.2058 4.15387 10.7094 4.78079L10.3286 4.6951C10.2439 4.67694 10.1564 4.67587 10.0712 4.69197C9.98606 4.70806 9.90495 4.741 9.83262 4.78885C9.76029 4.83671 9.6982 4.89852 9.64995 4.97069C9.60171 5.04286 9.56828 5.12394 9.55163 5.20919C9.51871 5.38739 9.55512 5.57146 9.65339 5.72357C9.75166 5.87568 9.90432 5.98429 10.08 6.02706L11.9448 6.46326C12.1064 6.50233 12.2767 6.47815 12.4211 6.39565C12.5655 6.31315 12.6731 6.17854 12.7218 6.01927L13.1881 4.39132C13.2427 4.21774 13.2279 4.02964 13.1466 3.86683C13.0654 3.70402 12.9242 3.57926 12.7529 3.51893C12.6704 3.48981 12.5828 3.47763 12.4954 3.48312C12.4081 3.48862 12.3227 3.51167 12.2444 3.55091C12.1661 3.59016 12.0965 3.64479 12.0397 3.71155C11.9829 3.77832 11.94 3.85585 11.9137 3.93955L11.8827 4.14207C11.2035 3.21781 10.2687 2.51366 9.1942 2.11687C8.52314 1.88549 7.81298 1.78976 7.10478 1.83522C6.39659 1.88068 5.70441 2.06642 5.06826 2.38171C4.42978 2.70904 3.86218 3.15972 3.39812 3.7078C2.93406 4.25589 2.5827 4.89056 2.36426 5.57529C2.31642 5.74573 2.33469 5.92801 2.41541 6.0855C2.49613 6.243 2.6333 6.36404 2.79938 6.42431ZM12.7607 8.5975C12.6777 8.56715 12.5893 8.55401 12.5011 8.55889C12.4129 8.56378 12.3265 8.58658 12.2473 8.62591C12.1681 8.66524 12.0977 8.72028 12.0404 8.7877C11.983 8.85512 11.94 8.93351 11.9137 9.01812C11.575 10.0587 10.8408 10.9235 9.8702 11.425C9.39166 11.6641 8.87062 11.8057 8.33716 11.8418C7.80371 11.8779 7.2684 11.8077 6.76215 11.6353C6.00847 11.3568 5.34489 10.8774 4.84293 10.2488L5.22366 10.3345C5.30848 10.3538 5.39631 10.3557 5.48187 10.34C5.56744 10.3244 5.64896 10.2916 5.72155 10.2436C5.79413 10.1956 5.85628 10.1333 5.90425 10.0606C5.95222 9.98787 5.98502 9.90617 6.00068 9.82041C6.0336 9.64221 5.99718 9.45815 5.89891 9.30603C5.80064 9.15392 5.64798 9.04532 5.47231 9.00254L3.60748 8.56635C3.44583 8.52529 3.2746 8.5486 3.12972 8.63138C2.98485 8.71416 2.87759 8.84998 2.83046 9.01033L2.30986 10.6305C2.25722 10.8041 2.273 10.9913 2.35395 11.1536C2.4349 11.3159 2.57486 11.4409 2.74499 11.5029C2.82749 11.5332 2.91529 11.5462 3.00301 11.5412C3.09072 11.5363 3.1765 11.5134 3.25508 11.474C3.33366 11.4346 3.40338 11.3796 3.45997 11.3122C3.51656 11.2448 3.55882 11.1666 3.58417 11.0823L3.63856 10.9031C4.31901 11.8261 5.25336 12.5299 6.32702 12.9283C6.99937 13.1599 7.71081 13.2557 8.4203 13.2103C9.12978 13.1648 9.82327 12.979 10.4607 12.6635C11.7554 12.0024 12.736 10.8541 13.1881 9.4699C13.2411 9.29727 13.2264 9.11085 13.147 8.94871C13.0676 8.78658 12.9294 8.66095 12.7607 8.5975Z" fill="#2E344F"/>
</svg>
